<svg xmlns="http://www.w3.org/2000/svg" viewBox="0 0 400 400">
  <defs>
    <linearGradient id="carpGrad" x1="0%" y1="0%" x2="100%" y2="100%">
      <stop offset="0%" style="stop-color:#810421;stop-opacity:1" />
      <stop offset="100%" style="stop-color:#a81c3d;stop-opacity:1" />
    </linearGradient>
    <pattern id="wood" x="0" y="0" width="40" height="40" patternUnits="userSpaceOnUse">
      <rect width="40" height="40" fill="#d4a574"/>
      <path d="M 0 10 Q 20 8, 40 10" stroke="#b8865f" stroke-width="1" fill="none"/>
      <path d="M 0 20 Q 20 22, 40 20" stroke="#b8865f" stroke-width="1" fill="none"/>
      <path d="M 0 30 Q 20 28, 40 30" stroke="#b8865f" stroke-width="1" fill="none"/>
    </pattern>
  </defs>
  
  <!-- Background circle -->
  <circle cx="200" cy="200" r="180" fill="#f8f9fa" opacity="0.5"/>
  
  <!-- Wood shavings -->
  <g fill="#d4a574" opacity="0.4">
    <ellipse cx="90" cy="120" rx="12" ry="4" transform="rotate(30 90 120)"/>
    <ellipse cx="310" cy="280" rx="10" ry="3" transform="rotate(-20 310 280)"/>
    <ellipse cx="100" cy="300" rx="14" ry="4" transform="rotate(45 100 300)"/>
  </g>
  
  <!-- Hammer -->
  <g transform="translate(80, 100)">
    <!-- Handle -->
    <rect x="35" y="80" width="18" height="150" rx="3" fill="#8b5a3c"/>
    <rect x="38" y="85" width="6" height="140" fill="#a67c52" opacity="0.6"/>
    
    <!-- Hammer head -->
    <rect x="10" y="60" width="70" height="35" rx="4" fill="#64748b"/>
    <rect x="15" y="65" width="60" height="25" rx="3" fill="#475569"/>
    
    <!-- Claw -->
    <path d="M 10 77 Q 0 77, -5 70 L -8 60 Q -5 55, 0 58 L 10 67 Z" fill="#475569"/>
    <path d="M 15 77 Q 8 77, 5 72 L 3 65 Q 5 62, 8 64 L 15 70 Z" fill="#64748b"/>
  </g>
  
  <!-- Saw -->
  <g transform="translate(180, 120)">
    <!-- Handle -->
    <ellipse cx="140" cy="30" rx="25" ry="20" fill="#8b5a3c"/>
    <ellipse cx="140" cy="30" rx="15" ry="12" fill="#a67c52"/>
    
    <!-- Blade -->
    <path d="M 10 50 L 135 30 L 135 40 L 10 60 Z" fill="#cbd5e1"/>
    <path d="M 12 52 L 133 33 L 133 37 L 12 56 Z" fill="#f1f5f9"/>
    
    <!-- Teeth -->
    <g fill="#94a3b8">
      <path d="M 20 50 L 15 45 L 20 45 Z"/>
      <path d="M 35 48 L 30 43 L 35 43 Z"/>
      <path d="M 50 47 L 45 42 L 50 42 Z"/>
      <path d="M 65 45 L 60 40 L 65 40 Z"/>
      <path d="M 80 44 L 75 39 L 80 39 Z"/>
      <path d="M 95 42 L 90 37 L 95 37 Z"/>
      <path d="M 110 40 L 105 35 L 110 35 Z"/>
      <path d="M 125 38 L 120 33 L 125 33 Z"/>
    </g>
  </g>
  
  <!-- Wooden plank -->
  <g transform="translate(100, 240)">
    <rect x="0" y="0" width="200" height="50" rx="4" fill="url(#wood)"/>
    <rect x="5" y="5" width="190" height="15" rx="2" fill="#b8865f" opacity="0.3"/>
    
    <!-- Nails -->
    <g fill="#64748b">
      <circle cx="30" cy="25" r="4"/>
      <circle cx="90" cy="25" r="4"/>
      <circle cx="150" cy="25" r="4"/>
    </g>
  </g>
  
  <!-- Screwdriver -->
  <g transform="translate(70, 200) rotate(-30 0 0)">
    <!-- Handle -->
    <rect x="0" y="0" width="15" height="60" rx="4" fill="url(#carpGrad)"/>
    <rect x="3" y="3" width="9" height="54" rx="3" fill="#a81c3d" opacity="0.5"/>
    
    <!-- Shaft -->
    <rect x="5" y="60" width="5" height="40" fill="#94a3b8"/>
    
    <!-- Tip -->
    <rect x="5" y="100" width="5" height="8" fill="#64748b"/>
  </g>
</svg>
