<svg xmlns="http://www.w3.org/2000/svg" viewBox="0 0 400 400">  <defs>
    <linearGradient id="cleanGrad" x1="0%" y1="0%" x2="100%" y2="100%">
      <stop offset="0%" style="stop-color:#F7B731;stop-opacity:1" />
      <stop offset="100%" style="stop-color:#F79F1F;stop-opacity:1" />
    </linearGradient>
  </defs>
  
  <!-- Background circle -->
  <circle cx="200" cy="200" r="180" fill="#f8f9fa" opacity="0.5"/>
    <!-- Sparkle icons -->
  <g fill="#F7B731" opacity="0.3">
    <circle cx="100" cy="80" r="8"/>
    <circle cx="120" cy="60" r="6"/>
    <circle cx="280" cy="100" r="10"/>
    <circle cx="310" cy="130" r="7"/>
    <circle cx="90" cy="320" r="9"/>
  </g>
  
  <!-- Main cleaning spray bottle -->
  <g transform="translate(120, 80)">
    <!-- Spray nozzle -->
    <rect x="60" y="0" width="40" height="20" rx="4" fill="url(#cleanGrad)"/>
    <rect x="70" y="-15" width="20" height="20" rx="3" fill="#3d4643"/>
    <path d="M 80 -15 L 75 -30 L 85 -30 Z" fill="#3d4643"/>
    
    <!-- Bottle body -->
    <rect x="50" y="20" width="60" height="120" rx="8" fill="url(#cleanGrad)" opacity="0.9"/>
    <rect x="55" y="30" width="50" height="100" rx="6" fill="#ffffff" opacity="0.3"/>
      <!-- Label -->
    <rect x="60" y="60" width="40" height="30" fill="#ffffff" opacity="0.7"/>
    <line x1="65" y1="70" x2="95" y2="70" stroke="#F7B731" stroke-width="2"/>
    <line x1="65" y1="80" x2="95" y2="80" stroke="#F7B731" stroke-width="2"/>
  </g>
  
  <!-- Sponge -->
  <g transform="translate(200, 200)">
    <rect x="0" y="0" width="80" height="60" rx="8" fill="#fbbf24" opacity="0.9"/>
    <rect x="5" y="5" width="70" height="25" rx="4" fill="#fef3c7"/>
    <!-- Holes in sponge -->
    <circle cx="20" cy="15" r="3" fill="#fbbf24"/>
    <circle cx="35" cy="12" r="4" fill="#fbbf24"/>
    <circle cx="50" cy="18" r="3" fill="#fbbf24"/>
    <circle cx="60" cy="14" r="3" fill="#fbbf24"/>
  </g>
  
  <!-- Bubbles -->
  <g fill="#60a5fa" opacity="0.6">
    <circle cx="150" cy="260" r="15"/>
    <circle cx="140" cy="240" r="12"/>
    <circle cx="170" cy="250" r="18"/>
    <circle cx="260" cy="170" r="14"/>
    <circle cx="280" cy="190" r="16"/>
    <circle cx="240" cy="160" r="11"/>
  </g>
  
  <!-- Bubble highlights -->
  <g fill="#ffffff" opacity="0.8">
    <circle cx="155" cy="255" r="4"/>
    <circle cx="145" cy="235" r="3"/>
    <circle cx="175" cy="245" r="5"/>
    <circle cx="265" cy="165" r="4"/>
    <circle cx="285" cy="185" r="4"/>
    <circle cx="245" cy="155" r="3"/>
  </g>
</svg>
