<svg xmlns="http://www.w3.org/2000/svg" viewBox="0 0 400 400">
  <defs>
    <linearGradient id="elecGrad" x1="0%" y1="0%" x2="100%" y2="100%">
      <stop offset="0%" style="stop-color:#810421;stop-opacity:1" />
      <stop offset="100%" style="stop-color:#a81c3d;stop-opacity:1" />
    </linearGradient>
  </defs>
  
  <!-- Background circle -->
  <circle cx="200" cy="200" r="180" fill="#f8f9fa" opacity="0.5"/>
  
  <!-- Lightning bolt spark effects -->
  <g fill="#fbbf24" opacity="0.3">
    <circle cx="90" cy="100" r="6"/>
    <circle cx="310" cy="140" r="8"/>
    <circle cx="100" cy="300" r="7"/>
    <circle cx="320" cy="280" r="6"/>
  </g>
  
  <!-- Main lightning bolt -->
  <g transform="translate(150, 80)">
    <path d="M 50 0 L 30 80 L 55 80 L 35 160 L 85 70 L 60 70 L 80 0 Z" 
          fill="url(#elecGrad)" stroke="#3d4643" stroke-width="2"/>
    <path d="M 55 10 L 45 60 L 60 60 L 50 110" 
          fill="none" stroke="#ffffff" stroke-width="3" opacity="0.5"/>
  </g>
  
  <!-- Light bulb -->
  <g transform="translate(230, 140)">
    <!-- Bulb glass -->
    <circle cx="35" cy="35" r="45" fill="#fef3c7" opacity="0.8"/>
    <circle cx="35" cy="35" r="35" fill="#fbbf24" opacity="0.6"/>
    
    <!-- Filament -->
    <path d="M 25 25 Q 35 30, 45 25 Q 35 35, 25 30" 
          fill="none" stroke="#f59e0b" stroke-width="3"/>
    
    <!-- Base -->
    <rect x="20" y="75" width="30" height="8" fill="#64748b"/>
    <rect x="22" y="83" width="26" height="6" fill="#475569"/>
    <rect x="24" y="89" width="22" height="6" fill="#64748b"/>
    <rect x="26" y="95" width="18" height="8" rx="2" fill="#3d4643"/>
    
    <!-- Light rays -->
    <g stroke="#fbbf24" stroke-width="3" opacity="0.5">
      <line x1="35" y1="0" x2="35" y2="-15"/>
      <line x1="70" y1="15" x2="82" y2="8"/>
      <line x1="75" y1="50" x2="90" y2="50"/>
      <line x1="0" y1="15" x2="-12" y2="8"/>
      <line x1="-5" y1="50" x2="-20" y2="50"/>
    </g>
  </g>
  
  <!-- Electric plug -->
  <g transform="translate(80, 230)">
    <!-- Plug body -->
    <rect x="0" y="20" width="60" height="50" rx="8" fill="#3d4643"/>
    <rect x="5" y="25" width="50" height="40" rx="6" fill="#475569"/>
    
    <!-- Pins -->
    <rect x="15" y="0" width="8" height="25" rx="2" fill="#94a3b8"/>
    <rect x="37" y="0" width="8" height="25" rx="2" fill="#94a3b8"/>
    
    <!-- Cable -->
    <path d="M 30 70 Q 30 85, 40 90 T 60 95" 
          fill="none" stroke="#3d4643" stroke-width="8" stroke-linecap="round"/>
  </g>
  
  <!-- Electric switch -->
  <g transform="translate(260, 240)">
    <rect x="0" y="0" width="55" height="70" rx="6" fill="#f1f5f9"/>
    <rect x="3" y="3" width="49" height="64" rx="4" fill="#ffffff"/>
    
    <!-- Switch toggle -->
    <rect x="15" y="20" width="25" height="35" rx="4" fill="url(#elecGrad)"/>
    <circle cx="27.5" cy="30" r="4" fill="#ffffff" opacity="0.7"/>
  </g>
</svg>
