<svg xmlns="http://www.w3.org/2000/svg" viewBox="0 0 400 400">
  <defs>
    <linearGradient id="handyGrad" x1="0%" y1="0%" x2="100%" y2="100%">
      <stop offset="0%" style="stop-color:#810421;stop-opacity:1" />
      <stop offset="100%" style="stop-color:#a81c3d;stop-opacity:1" />
    </linearGradient>
  </defs>
  
  <!-- Background circle -->
  <circle cx="200" cy="200" r="180" fill="#f8f9fa" opacity="0.5"/>
  
  <!-- Tools scattered -->
  <g opacity="0.3">
    <circle cx="80" cy="90" r="8" fill="#810421"/>
    <rect x="310" y="100" width="12" height="12" fill="#810421"/>
    <circle cx="90" cy="310" r="10" fill="#810421"/>
    <rect x="300" y="290" width="14" height="14" fill="#810421"/>
  </g>
  
  <!-- Toolbox -->
  <g transform="translate(100, 200)">
    <!-- Box body -->
    <rect x="0" y="30" width="200" height="100" rx="6" fill="url(#handyGrad)"/>
    <rect x="5" y="35" width="190" height="50" fill="#a81c3d" opacity="0.4"/>
    
    <!-- Handle -->
    <path d="M 70 30 L 70 10 Q 70 5, 75 5 L 125 5 Q 130 5, 130 10 L 130 30" 
          fill="none" stroke="#3d4643" stroke-width="8" stroke-linecap="round"/>
    
    <!-- Lock/Latch -->
    <rect x="95" y="60" width="10" height="15" rx="2" fill="#fbbf24"/>
    <circle cx="100" cy="72" r="3" fill="#3d4643"/>
    
    <!-- Compartments -->
    <line x1="0" y1="80" x2="200" y2="80" stroke="#3d4643" stroke-width="2"/>
    <line x1="100" y1="30" x2="100" y2="130" stroke="#3d4643" stroke-width="2"/>
  </g>
  
  <!-- Drill -->
  <g transform="translate(120, 80)">
    <!-- Drill body -->
    <rect x="40" y="20" width="80" height="40" rx="6" fill="#3d4643"/>
    <rect x="45" y="25" width="70" height="30" rx="4" fill="#475569"/>
    
    <!-- Handle -->
    <path d="M 70 60 L 60 85 Q 58 90, 63 90 L 77 90 Q 82 90, 80 85 L 90 60 Z" fill="#475569"/>
    <rect x="66" y="65" width="8" height="18" fill="#64748b" opacity="0.5"/>
    
    <!-- Chuck -->
    <rect x="25" y="30" width="20" height="20" fill="#94a3b8"/>
    <circle cx="35" cy="40" r="8" fill="#64748b"/>
    
    <!-- Drill bit -->
    <rect x="10" y="37" width="20" height="6" fill="#475569"/>
    <polygon points="10,37 0,40 10,43" fill="#64748b"/>
    
    <!-- Trigger -->
    <rect x="72" y="60" width="6" height="10" rx="2" fill="#fbbf24"/>
  </g>
  
  <!-- Screws and Nails -->
  <g fill="#64748b">
    <g transform="translate(280, 140)">
      <rect x="0" y="0" width="4" height="30"/>
      <circle cx="2" cy="0" r="4"/>
    </g>
    <g transform="translate(300, 150)">
      <rect x="0" y="0" width="4" height="25"/>
      <circle cx="2" cy="0" r="3"/>
    </g>
    <g transform="translate(290, 180)">
      <rect x="0" y="0" width="4" height="28"/>
      <circle cx="2" cy="0" r="4"/>
    </g>
  </g>
  
  <!-- Measuring tape -->
  <g transform="translate(60, 140)">
    <!-- Tape body -->
    <rect x="0" y="0" width="50" height="50" rx="8" fill="#fbbf24"/>
    <rect x="4" y="4" width="42" height="42" rx="6" fill="#fef3c7"/>
    
    <!-- Tape coming out -->
    <rect x="50" y="20" width="40" height="10" fill="#fef3c7"/>
    <line x1="52" y1="22" x2="88" y2="22" stroke="#3d4643" stroke-width="1"/>
    <line x1="52" y1="28" x2="88" y2="28" stroke="#3d4643" stroke-width="1"/>
    
    <!-- Measurements on tape -->
    <g stroke="#3d4643" stroke-width="1">
      <line x1="60" y1="20" x2="60" y2="30"/>
      <line x1="70" y1="20" x2="70" y2="30"/>
      <line x1="80" y1="20" x2="80" y2="30"/>
    </g>
    
    <!-- Center circle -->
    <circle cx="25" cy="25" r="12" fill="#810421" opacity="0.3"/>
  </g>
  
  <!-- Level tool -->
  <g transform="translate(200, 310)">
    <rect x="0" y="0" width="120" height="25" rx="4" fill="#fbbf24"/>
    <rect x="3" y="3" width="114" height="19" rx="3" fill="#fef3c7"/>
    
    <!-- Bubble vial -->
    <ellipse cx="60" cy="12.5" rx="20" ry="6" fill="#60a5fa" opacity="0.5"/>
    <circle cx="60" cy="12.5" r="4" fill="#3d4643"/>
  </g>
</svg>
