<svg xmlns="http://www.w3.org/2000/svg" viewBox="0 0 400 400">
  <defs>
    <linearGradient id="plumbGrad" x1="0%" y1="0%" x2="100%" y2="100%">
      <stop offset="0%" style="stop-color:#810421;stop-opacity:1" />
      <stop offset="100%" style="stop-color:#a81c3d;stop-opacity:1" />
    </linearGradient>
  </defs>
  
  <!-- Background circle -->
  <circle cx="200" cy="200" r="180" fill="#f8f9fa" opacity="0.5"/>
  
  <!-- Water drops -->
  <g fill="#3b82f6" opacity="0.4">
    <path d="M 80 120 Q 80 100, 90 100 Q 100 100, 100 120 Q 100 135, 90 135 Q 80 135, 80 120"/>
    <path d="M 300 280 Q 300 260, 310 260 Q 320 260, 320 280 Q 320 295, 310 295 Q 300 295, 300 280"/>
    <path d="M 320 100 Q 320 85, 328 85 Q 336 85, 336 100 Q 336 112, 328 112 Q 320 112, 320 100"/>
  </g>
  
  <!-- Main wrench -->
  <g transform="translate(100, 120)">
    <!-- Wrench handle -->
    <rect x="40" y="100" width="25" height="140" rx="4" fill="url(#plumbGrad)"/>
    <rect x="43" y="105" width="8" height="130" fill="#ffffff" opacity="0.3"/>
    
    <!-- Wrench head -->
    <ellipse cx="52.5" cy="90" rx="35" ry="25" fill="url(#plumbGrad)"/>
    <ellipse cx="52.5" cy="90" rx="20" ry="12" fill="#ffffff" opacity="0.3"/>
    
    <!-- Adjustable jaw -->
    <rect x="25" y="75" width="15" height="35" rx="2" fill="#3d4643"/>
  </g>
  
  <!-- Pipes -->
  <g>
    <!-- Vertical pipe -->
    <rect x="220" y="80" width="40" height="160" rx="4" fill="#64748b"/>
    <rect x="225" y="85" width="12" height="150" fill="#cbd5e1"/>
    
    <!-- Horizontal pipe -->
    <rect x="180" y="200" width="160" height="40" rx="4" fill="#64748b"/>
    <rect x="185" y="205" width="150" height="12" fill="#cbd5e1"/>
    
    <!-- Pipe joint -->
    <circle cx="240" cy="220" r="30" fill="#475569"/>
    <circle cx="240" cy="220" r="18" fill="#94a3b8"/>
  </g>
  
  <!-- Water droplet coming out -->
  <g fill="#3b82f6" opacity="0.7">
    <path d="M 240 260 Q 240 245, 248 245 Q 256 245, 256 260 Q 256 272, 248 272 Q 240 272, 240 260"/>
  </g>
  <circle cx="248" cy="254" r="3" fill="#ffffff" opacity="0.8"/>
  
  <!-- Tap/Faucet -->
  <g transform="translate(260, 140)">
    <rect x="0" y="0" width="50" height="15" rx="3" fill="#3d4643"/>
    <path d="M 25 15 Q 15 15, 15 25 L 15 45 Q 15 50, 20 50 L 30 50 Q 35 50, 35 45 L 35 25 Q 35 15, 25 15" fill="#475569"/>
    <circle cx="25" cy="5" r="6" fill="#94a3b8"/>
  </g>
</svg>
